REM MD5 2f96c2c59a016fb211cb0442be283cb6
FILE "Street Fighter Alpha - Warriors' Dreams (Europe).bin" BINARY
  TRACK 01 MODE2/2352
    INDEX 01 00:00:00
  TRACK 02 AUDIO
    INDEX 00 03:02:61
    INDEX 01 03:04:61
  TRACK 03 AUDIO
    INDEX 00 03:48:55
    INDEX 01 03:50:55
  TRACK 04 AUDIO
    INDEX 00 03:57:06
    INDEX 01 03:59:06
  TRACK 05 AUDIO
    INDEX 00 04:05:45
    INDEX 01 04:07:45
  TRACK 06 AUDIO
    INDEX 00 04:12:47
    INDEX 01 04:14:47
  TRACK 07 AUDIO
    INDEX 00 04:39:48
    INDEX 01 04:41:48
  TRACK 08 AUDIO
    INDEX 00 05:06:48
    INDEX 01 05:08:48
  TRACK 09 AUDIO
    INDEX 00 05:23:60
    INDEX 01 05:25:60
  TRACK 10 AUDIO
    INDEX 00 05:31:49
    INDEX 01 05:33:49
  TRACK 11 AUDIO
    INDEX 00 07:00:45
    INDEX 01 07:02:45
  TRACK 12 AUDIO
    INDEX 00 08:29:39
    INDEX 01 08:31:39
  TRACK 13 AUDIO
    INDEX 00 09:35:34
    INDEX 01 09:37:34
  TRACK 14 AUDIO
    INDEX 00 10:46:56
    INDEX 01 10:48:56
  TRACK 15 AUDIO
    INDEX 00 11:51:39
    INDEX 01 11:53:39
  TRACK 16 AUDIO
    INDEX 00 12:51:62
    INDEX 01 12:53:62
  TRACK 17 AUDIO
    INDEX 00 13:45:25
    INDEX 01 13:47:25
  TRACK 18 AUDIO
    INDEX 00 14:45:56
    INDEX 01 14:47:56
  TRACK 19 AUDIO
    INDEX 00 15:52:55
    INDEX 01 15:54:55
  TRACK 20 AUDIO
    INDEX 00 17:07:61
    INDEX 01 17:09:61
  TRACK 21 AUDIO
    INDEX 00 18:06:47
    INDEX 01 18:08:47
  TRACK 22 AUDIO
    INDEX 00 19:29:09
    INDEX 01 19:31:09
  TRACK 23 AUDIO
    INDEX 00 20:29:52
    INDEX 01 20:31:52
  TRACK 24 AUDIO
    INDEX 00 21:28:48
    INDEX 01 21:30:48
  TRACK 25 AUDIO
    INDEX 00 22:36:24
    INDEX 01 22:38:24
  TRACK 26 AUDIO
    INDEX 00 24:47:25
    INDEX 01 24:49:25
  TRACK 27 AUDIO
    INDEX 00 26:18:29
    INDEX 01 26:20:29
  TRACK 28 AUDIO
    INDEX 00 28:01:38
    INDEX 01 28:03:38
  TRACK 29 AUDIO
    INDEX 00 29:15:12
    INDEX 01 29:17:12
  TRACK 30 AUDIO
    INDEX 00 30:47:18
    INDEX 01 30:49:18
  TRACK 31 AUDIO
    INDEX 00 33:10:03
    INDEX 01 33:12:03
  TRACK 32 AUDIO
    INDEX 00 35:09:24
    INDEX 01 35:11:24
  TRACK 33 AUDIO
    INDEX 00 36:55:48
    INDEX 01 36:57:48
  TRACK 34 AUDIO
    INDEX 00 38:13:23
    INDEX 01 38:15:23
  TRACK 35 AUDIO
    INDEX 00 39:50:53
    INDEX 01 39:52:53
  TRACK 36 AUDIO
    INDEX 00 42:04:57
    INDEX 01 42:06:57
  TRACK 37 AUDIO
    INDEX 00 44:03:52
    INDEX 01 44:05:52
  TRACK 38 AUDIO
    INDEX 00 46:08:74
    INDEX 01 46:10:74
  TRACK 39 AUDIO
    INDEX 00 46:31:01
    INDEX 01 46:33:01
  TRACK 40 AUDIO
    INDEX 00 46:56:02
    INDEX 01 46:58:02
  TRACK 41 AUDIO
    INDEX 00 47:42:74
    INDEX 01 47:44:74
  TRACK 42 AUDIO
    INDEX 00 48:15:32
    INDEX 01 48:17:32
  TRACK 43 AUDIO
    INDEX 00 49:00:66
    INDEX 01 49:02:66
  TRACK 44 AUDIO
    INDEX 00 49:53:22
    INDEX 01 49:55:22
  TRACK 45 AUDIO
    INDEX 00 50:52:07
    INDEX 01 50:54:07
  TRACK 46 AUDIO
    INDEX 00 51:23:08
    INDEX 01 51:25:08
  TRACK 47 AUDIO
    INDEX 00 52:01:26
    INDEX 01 52:03:26
  TRACK 48 AUDIO
    INDEX 00 52:44:30
    INDEX 01 52:46:30
  TRACK 49 AUDIO
    INDEX 00 54:33:15
    INDEX 01 54:35:15
  TRACK 50 AUDIO
    INDEX 00 55:01:17
    INDEX 01 55:03:17
  TRACK 51 AUDIO
    INDEX 00 55:31:55
    INDEX 01 55:33:55
REM LEADOUT 59:03:55
